<svg width="155" height="20" viewBox="0 0 155 20" fill="none" xmlns="http://www.w3.org/2000/svg">
<path d="M39.848 10.48C40.2907 10.48 40.68 10.4213 41.016 10.304C41.3573 10.1867 41.6427 10.024 41.872 9.816C42.1067 9.60267 42.2827 9.34933 42.4 9.056C42.5173 8.76267 42.576 8.44 42.576 8.088C42.576 7.35733 42.3493 6.78667 41.896 6.376C41.448 5.96533 40.7653 5.76 39.848 5.76H38.008V10.48H39.848ZM39.848 4.536C40.5733 4.536 41.2027 4.62133 41.736 4.792C42.2747 4.95733 42.72 5.19467 43.072 5.504C43.424 5.81333 43.6853 6.18667 43.856 6.624C44.032 7.06133 44.12 7.54933 44.12 8.088C44.12 8.62133 44.0267 9.10933 43.84 9.552C43.6533 9.99467 43.3787 10.376 43.016 10.696C42.6587 11.016 42.2133 11.2667 41.68 11.448C41.152 11.624 40.5413 11.712 39.848 11.712H38.008V16H36.464V4.536H39.848ZM46.9331 9.52C47.1891 8.96533 47.5038 8.53333 47.8771 8.224C48.2505 7.90933 48.7065 7.752 49.2451 7.752C49.4158 7.752 49.5785 7.77067 49.7331 7.808C49.8931 7.84533 50.0345 7.904 50.1571 7.984L50.0531 9.048C50.0211 9.18133 49.9411 9.248 49.8131 9.248C49.7385 9.248 49.6291 9.232 49.4851 9.2C49.3411 9.168 49.1785 9.152 48.9971 9.152C48.7411 9.152 48.5118 9.18933 48.3091 9.264C48.1118 9.33867 47.9331 9.45067 47.7731 9.6C47.6185 9.744 47.4771 9.92533 47.3491 10.144C47.2265 10.3573 47.1145 10.6027 47.0131 10.88V16H45.5811V7.896H46.3971C46.5518 7.896 46.6585 7.92533 46.7171 7.984C46.7758 8.04267 46.8158 8.144 46.8371 8.288L46.9331 9.52ZM56.5051 11.064C56.5051 10.7333 56.4571 10.432 56.3611 10.16C56.2705 9.88267 56.1345 9.64533 55.9531 9.448C55.7771 9.24533 55.5611 9.09067 55.3051 8.984C55.0491 8.872 54.7585 8.816 54.4331 8.816C53.7505 8.816 53.2091 9.016 52.8091 9.416C52.4145 9.81067 52.1691 10.36 52.0731 11.064H56.5051ZM57.6571 14.864C57.4811 15.0773 57.2705 15.264 57.0251 15.424C56.7798 15.5787 56.5158 15.7067 56.2331 15.808C55.9558 15.9093 55.6678 15.984 55.3691 16.032C55.0705 16.0853 54.7745 16.112 54.4811 16.112C53.9211 16.112 53.4038 16.0187 52.9291 15.832C52.4598 15.64 52.0518 15.3627 51.7051 15C51.3638 14.632 51.0971 14.1787 50.9051 13.64C50.7131 13.1013 50.6171 12.4827 50.6171 11.784C50.6171 11.2187 50.7025 10.6907 50.8731 10.2C51.0491 9.70933 51.2998 9.28533 51.6251 8.928C51.9505 8.56533 52.3478 8.28267 52.8171 8.08C53.2865 7.872 53.8145 7.768 54.4011 7.768C54.8865 7.768 55.3345 7.85067 55.7451 8.016C56.1611 8.176 56.5185 8.41067 56.8171 8.72C57.1211 9.024 57.3585 9.40267 57.5291 9.856C57.6998 10.304 57.7851 10.816 57.7851 11.392C57.7851 11.616 57.7611 11.7653 57.7131 11.84C57.6651 11.9147 57.5745 11.952 57.4411 11.952H52.0251C52.0411 12.464 52.1105 12.9093 52.2331 13.288C52.3611 13.6667 52.5371 13.984 52.7611 14.24C52.9851 14.4907 53.2518 14.68 53.5611 14.808C53.8705 14.9307 54.2171 14.992 54.6011 14.992C54.9585 14.992 55.2651 14.952 55.5211 14.872C55.7825 14.7867 56.0065 14.696 56.1931 14.6C56.3798 14.504 56.5345 14.416 56.6571 14.336C56.7851 14.2507 56.8945 14.208 56.9851 14.208C57.1025 14.208 57.1931 14.2533 57.2571 14.344L57.6571 14.864ZM65.1743 9.336C65.1316 9.39467 65.0889 9.44 65.0463 9.472C65.0036 9.504 64.9449 9.52 64.8703 9.52C64.7903 9.52 64.7023 9.488 64.6063 9.424C64.5103 9.35467 64.3903 9.28 64.2463 9.2C64.1076 9.12 63.9343 9.048 63.7263 8.984C63.5236 8.91467 63.2729 8.88 62.9743 8.88C62.5743 8.88 62.2223 8.952 61.9183 9.096C61.6143 9.23467 61.3583 9.43733 61.1503 9.704C60.9476 9.97067 60.7929 10.2933 60.6863 10.672C60.5849 11.0507 60.5343 11.4747 60.5343 11.944C60.5343 12.4347 60.5903 12.872 60.7023 13.256C60.8143 13.6347 60.9716 13.9547 61.1743 14.216C61.3823 14.472 61.6303 14.6693 61.9183 14.808C62.2116 14.9413 62.5396 15.008 62.9023 15.008C63.2489 15.008 63.5343 14.968 63.7583 14.888C63.9823 14.8027 64.1663 14.7093 64.3103 14.608C64.4596 14.5067 64.5823 14.416 64.6783 14.336C64.7796 14.2507 64.8783 14.208 64.9743 14.208C65.0916 14.208 65.1823 14.2533 65.2463 14.344L65.6463 14.864C65.4703 15.0827 65.2703 15.2693 65.0463 15.424C64.8223 15.5787 64.5796 15.7093 64.3183 15.816C64.0623 15.9173 63.7929 15.992 63.5103 16.04C63.2276 16.088 62.9396 16.112 62.6463 16.112C62.1396 16.112 61.6676 16.0187 61.2303 15.832C60.7983 15.6453 60.4223 15.376 60.1023 15.024C59.7823 14.6667 59.5316 14.2293 59.3503 13.712C59.1689 13.1947 59.0783 12.6053 59.0783 11.944C59.0783 11.3413 59.1609 10.784 59.3263 10.272C59.4969 9.76 59.7423 9.32 60.0623 8.952C60.3876 8.57867 60.7849 8.288 61.2543 8.08C61.7289 7.872 62.2729 7.768 62.8863 7.768C63.4569 7.768 63.9583 7.86133 64.3903 8.048C64.8276 8.22933 65.2143 8.488 65.5503 8.824L65.1743 9.336ZM68.6789 7.896V16H67.2549V7.896H68.6789ZM68.9829 5.352C68.9829 5.49067 68.9535 5.62133 68.8949 5.744C68.8415 5.86133 68.7669 5.968 68.6709 6.064C68.5802 6.15467 68.4709 6.22667 68.3429 6.28C68.2202 6.33333 68.0895 6.36 67.9509 6.36C67.8122 6.36 67.6815 6.33333 67.5589 6.28C67.4415 6.22667 67.3375 6.15467 67.2469 6.064C67.1562 5.968 67.0842 5.86133 67.0309 5.744C66.9775 5.62133 66.9509 5.49067 66.9509 5.352C66.9509 5.21333 66.9775 5.08267 67.0309 4.96C67.0842 4.832 67.1562 4.72267 67.2469 4.632C67.3375 4.536 67.4415 4.46133 67.5589 4.408C67.6815 4.35467 67.8122 4.328 67.9509 4.328C68.0895 4.328 68.2202 4.35467 68.3429 4.408C68.4709 4.46133 68.5802 4.536 68.6709 4.632C68.7669 4.72267 68.8415 4.832 68.8949 4.96C68.9535 5.08267 68.9829 5.21333 68.9829 5.352ZM75.7386 9.232C75.6746 9.34933 75.576 9.408 75.4426 9.408C75.3626 9.408 75.272 9.37867 75.1706 9.32C75.0693 9.26133 74.944 9.19733 74.7946 9.128C74.6506 9.05333 74.4773 8.98667 74.2746 8.928C74.072 8.864 73.832 8.832 73.5546 8.832C73.3146 8.832 73.0986 8.864 72.9066 8.928C72.7146 8.98667 72.5493 9.06933 72.4106 9.176C72.2773 9.28267 72.1733 9.408 72.0986 9.552C72.0293 9.69067 71.9946 9.84267 71.9946 10.008C71.9946 10.216 72.0533 10.3893 72.1706 10.528C72.2933 10.6667 72.4533 10.7867 72.6506 10.888C72.848 10.9893 73.072 11.08 73.3226 11.16C73.5733 11.2347 73.8293 11.3173 74.0906 11.408C74.3573 11.4933 74.616 11.5893 74.8666 11.696C75.1173 11.8027 75.3413 11.936 75.5386 12.096C75.736 12.256 75.8933 12.4533 76.0106 12.688C76.1333 12.9173 76.1946 13.1947 76.1946 13.52C76.1946 13.8933 76.128 14.24 75.9946 14.56C75.8613 14.8747 75.664 15.1493 75.4026 15.384C75.1413 15.6133 74.8213 15.7947 74.4426 15.928C74.064 16.0613 73.6266 16.128 73.1306 16.128C72.5653 16.128 72.0533 16.0373 71.5946 15.856C71.136 15.6693 70.7466 15.432 70.4266 15.144L70.7626 14.6C70.8053 14.5307 70.856 14.4773 70.9146 14.44C70.9733 14.4027 71.048 14.384 71.1386 14.384C71.2346 14.384 71.336 14.4213 71.4426 14.496C71.5493 14.5707 71.6773 14.6533 71.8266 14.744C71.9813 14.8347 72.168 14.9173 72.3866 14.992C72.6053 15.0667 72.8773 15.104 73.2026 15.104C73.48 15.104 73.7226 15.0693 73.9306 15C74.1386 14.9253 74.312 14.8267 74.4506 14.704C74.5893 14.5813 74.6906 14.44 74.7546 14.28C74.824 14.12 74.8586 13.9493 74.8586 13.768C74.8586 13.544 74.7973 13.36 74.6746 13.216C74.5573 13.0667 74.4 12.9413 74.2026 12.84C74.0053 12.7333 73.7786 12.6427 73.5226 12.568C73.272 12.488 73.0133 12.4053 72.7466 12.32C72.4853 12.2347 72.2266 12.1387 71.9706 12.032C71.72 11.92 71.496 11.7813 71.2986 11.616C71.1013 11.4507 70.9413 11.248 70.8186 11.008C70.7013 10.7627 70.6426 10.4667 70.6426 10.12C70.6426 9.81067 70.7066 9.51467 70.8346 9.232C70.9626 8.944 71.1493 8.69333 71.3946 8.48C71.64 8.26133 71.9413 8.088 72.2986 7.96C72.656 7.832 73.064 7.768 73.5226 7.768C74.056 7.768 74.5333 7.85333 74.9546 8.024C75.3813 8.18933 75.7493 8.41867 76.0586 8.712L75.7386 9.232ZM82.3325 12.352C81.6765 12.3733 81.1165 12.4267 80.6525 12.512C80.1938 12.592 79.8178 12.6987 79.5245 12.832C79.2365 12.9653 79.0258 13.1227 78.8925 13.304C78.7645 13.4853 78.7005 13.688 78.7005 13.912C78.7005 14.1253 78.7352 14.3093 78.8045 14.464C78.8738 14.6187 78.9672 14.7467 79.0845 14.848C79.2072 14.944 79.3485 15.016 79.5085 15.064C79.6738 15.1067 79.8498 15.128 80.0365 15.128C80.2872 15.128 80.5165 15.104 80.7245 15.056C80.9325 15.0027 81.1272 14.928 81.3085 14.832C81.4952 14.736 81.6712 14.6213 81.8365 14.488C82.0072 14.3547 82.1725 14.2027 82.3325 14.032V12.352ZM77.7325 9.04C78.1805 8.608 78.6632 8.28533 79.1805 8.072C79.6978 7.85867 80.2712 7.752 80.9005 7.752C81.3538 7.752 81.7565 7.82667 82.1085 7.976C82.4605 8.12533 82.7565 8.33333 82.9965 8.6C83.2365 8.86667 83.4178 9.18933 83.5405 9.568C83.6632 9.94667 83.7245 10.3627 83.7245 10.816V16H83.0925C82.9538 16 82.8472 15.9787 82.7725 15.936C82.6978 15.888 82.6392 15.7973 82.5965 15.664L82.4365 14.896C82.2232 15.0933 82.0152 15.2693 81.8125 15.424C81.6098 15.5733 81.3965 15.7013 81.1725 15.808C80.9485 15.9093 80.7085 15.9867 80.4525 16.04C80.2018 16.0987 79.9218 16.128 79.6125 16.128C79.2978 16.128 79.0018 16.0853 78.7245 16C78.4472 15.9093 78.2045 15.776 77.9965 15.6C77.7938 15.424 77.6312 15.2027 77.5085 14.936C77.3912 14.664 77.3325 14.344 77.3325 13.976C77.3325 13.656 77.4205 13.3493 77.5965 13.056C77.7725 12.7573 78.0578 12.4933 78.4525 12.264C78.8472 12.0347 79.3618 11.848 79.9965 11.704C80.6312 11.5547 81.4098 11.4693 82.3325 11.448V10.816C82.3325 10.1867 82.1965 9.712 81.9245 9.392C81.6525 9.06667 81.2552 8.904 80.7325 8.904C80.3805 8.904 80.0845 8.94933 79.8445 9.04C79.6098 9.12533 79.4045 9.224 79.2285 9.336C79.0578 9.44267 78.9085 9.54133 78.7805 9.632C78.6578 9.71733 78.5352 9.76 78.4125 9.76C78.3165 9.76 78.2338 9.736 78.1645 9.688C78.0952 9.63467 78.0365 9.57067 77.9885 9.496L77.7325 9.04ZM95.2674 9.824C95.0007 9.46667 94.7127 9.21867 94.4034 9.08C94.094 8.936 93.7474 8.864 93.3634 8.864C92.6114 8.864 92.0327 9.13333 91.6274 9.672C91.222 10.2107 91.0194 10.9787 91.0194 11.976C91.0194 12.504 91.0647 12.9573 91.1554 13.336C91.246 13.7093 91.3794 14.0187 91.5554 14.264C91.7314 14.504 91.9474 14.68 92.2034 14.792C92.4594 14.904 92.75 14.96 93.0754 14.96C93.5447 14.96 93.9527 14.8533 94.2994 14.64C94.6514 14.4267 94.974 14.1253 95.2674 13.736V9.824ZM96.6914 4.216V16H95.8434C95.6407 16 95.5127 15.9013 95.4594 15.704L95.3314 14.72C94.9847 15.136 94.59 15.472 94.1474 15.728C93.7047 15.984 93.1927 16.112 92.6114 16.112C92.1474 16.112 91.726 16.024 91.3474 15.848C90.9687 15.6667 90.646 15.4027 90.3794 15.056C90.1127 14.7093 89.9074 14.2773 89.7634 13.76C89.6194 13.2427 89.5474 12.648 89.5474 11.976C89.5474 11.3787 89.6274 10.824 89.7874 10.312C89.9474 9.79467 90.1767 9.34667 90.4754 8.968C90.774 8.58933 91.1394 8.29333 91.5714 8.08C92.0087 7.86133 92.4994 7.752 93.0434 7.752C93.5394 7.752 93.9634 7.83733 94.3154 8.008C94.6727 8.17333 94.99 8.40533 95.2674 8.704V4.216H96.6914ZM104.365 11.064C104.365 10.7333 104.317 10.432 104.221 10.16C104.13 9.88267 103.994 9.64533 103.813 9.448C103.637 9.24533 103.421 9.09067 103.165 8.984C102.909 8.872 102.618 8.816 102.293 8.816C101.61 8.816 101.069 9.016 100.669 9.416C100.274 9.81067 100.029 10.36 99.9325 11.064H104.365ZM105.517 14.864C105.341 15.0773 105.13 15.264 104.885 15.424C104.639 15.5787 104.375 15.7067 104.093 15.808C103.815 15.9093 103.527 15.984 103.229 16.032C102.93 16.0853 102.634 16.112 102.341 16.112C101.781 16.112 101.263 16.0187 100.789 15.832C100.319 15.64 99.9112 15.3627 99.5645 15C99.2232 14.632 98.9565 14.1787 98.7645 13.64C98.5725 13.1013 98.4765 12.4827 98.4765 11.784C98.4765 11.2187 98.5618 10.6907 98.7325 10.2C98.9085 9.70933 99.1592 9.28533 99.4845 8.928C99.8098 8.56533 100.207 8.28267 100.677 8.08C101.146 7.872 101.674 7.768 102.261 7.768C102.746 7.768 103.194 7.85067 103.605 8.016C104.021 8.176 104.378 8.41067 104.677 8.72C104.981 9.024 105.218 9.40267 105.389 9.856C105.559 10.304 105.645 10.816 105.645 11.392C105.645 11.616 105.621 11.7653 105.573 11.84C105.525 11.9147 105.434 11.952 105.301 11.952H99.8845C99.9005 12.464 99.9698 12.9093 100.093 13.288C100.221 13.6667 100.397 13.984 100.621 14.24C100.845 14.4907 101.111 14.68 101.421 14.808C101.73 14.9307 102.077 14.992 102.461 14.992C102.818 14.992 103.125 14.952 103.381 14.872C103.642 14.7867 103.866 14.696 104.053 14.6C104.239 14.504 104.394 14.416 104.517 14.336C104.645 14.2507 104.754 14.208 104.845 14.208C104.962 14.208 105.053 14.2533 105.117 14.344L105.517 14.864ZM115.879 12.352C115.223 12.3733 114.663 12.4267 114.199 12.512C113.741 12.592 113.365 12.6987 113.071 12.832C112.783 12.9653 112.573 13.1227 112.439 13.304C112.311 13.4853 112.247 13.688 112.247 13.912C112.247 14.1253 112.282 14.3093 112.351 14.464C112.421 14.6187 112.514 14.7467 112.631 14.848C112.754 14.944 112.895 15.016 113.055 15.064C113.221 15.1067 113.397 15.128 113.583 15.128C113.834 15.128 114.063 15.104 114.271 15.056C114.479 15.0027 114.674 14.928 114.855 14.832C115.042 14.736 115.218 14.6213 115.383 14.488C115.554 14.3547 115.719 14.2027 115.879 14.032V12.352ZM111.279 9.04C111.727 8.608 112.21 8.28533 112.727 8.072C113.245 7.85867 113.818 7.752 114.447 7.752C114.901 7.752 115.303 7.82667 115.655 7.976C116.007 8.12533 116.303 8.33333 116.543 8.6C116.783 8.86667 116.965 9.18933 117.087 9.568C117.21 9.94667 117.271 10.3627 117.271 10.816V16H116.639C116.501 16 116.394 15.9787 116.319 15.936C116.245 15.888 116.186 15.7973 116.143 15.664L115.983 14.896C115.77 15.0933 115.562 15.2693 115.359 15.424C115.157 15.5733 114.943 15.7013 114.719 15.808C114.495 15.9093 114.255 15.9867 113.999 16.04C113.749 16.0987 113.469 16.128 113.159 16.128C112.845 16.128 112.549 16.0853 112.271 16C111.994 15.9093 111.751 15.776 111.543 15.6C111.341 15.424 111.178 15.2027 111.055 14.936C110.938 14.664 110.879 14.344 110.879 13.976C110.879 13.656 110.967 13.3493 111.143 13.056C111.319 12.7573 111.605 12.4933 111.999 12.264C112.394 12.0347 112.909 11.848 113.543 11.704C114.178 11.5547 114.957 11.4693 115.879 11.448V10.816C115.879 10.1867 115.743 9.712 115.471 9.392C115.199 9.06667 114.802 8.904 114.279 8.904C113.927 8.904 113.631 8.94933 113.391 9.04C113.157 9.12533 112.951 9.224 112.775 9.336C112.605 9.44267 112.455 9.54133 112.327 9.632C112.205 9.71733 112.082 9.76 111.959 9.76C111.863 9.76 111.781 9.736 111.711 9.688C111.642 9.63467 111.583 9.57067 111.535 9.496L111.279 9.04ZM120.945 7.896V16.6C120.945 16.9253 120.902 17.2267 120.817 17.504C120.731 17.7867 120.595 18.032 120.409 18.24C120.222 18.448 119.982 18.6107 119.689 18.728C119.401 18.8507 119.054 18.912 118.649 18.912C118.478 18.912 118.321 18.8987 118.176 18.872C118.032 18.8453 117.888 18.8053 117.744 18.752L117.8 17.984C117.811 17.936 117.83 17.8987 117.856 17.872C117.878 17.8507 117.91 17.8373 117.952 17.832C117.995 17.8267 118.051 17.824 118.12 17.824C118.184 17.8293 118.267 17.832 118.369 17.832C118.785 17.832 119.081 17.7333 119.257 17.536C119.433 17.344 119.521 17.032 119.521 16.6V7.896H120.945ZM121.241 5.352C121.241 5.49067 121.211 5.62133 121.153 5.744C121.099 5.86133 121.025 5.968 120.929 6.064C120.838 6.15467 120.731 6.22667 120.609 6.28C120.486 6.33333 120.355 6.36 120.217 6.36C120.078 6.36 119.947 6.33333 119.825 6.28C119.707 6.22667 119.603 6.15467 119.513 6.064C119.422 5.968 119.35 5.86133 119.297 5.744C119.243 5.62133 119.217 5.49067 119.217 5.352C119.217 5.21333 119.243 5.08267 119.297 4.96C119.35 4.832 119.422 4.72267 119.513 4.632C119.603 4.536 119.707 4.46133 119.825 4.408C119.947 4.35467 120.078 4.328 120.217 4.328C120.355 4.328 120.486 4.35467 120.609 4.408C120.731 4.46133 120.838 4.536 120.929 4.632C121.025 4.72267 121.099 4.832 121.153 4.96C121.211 5.08267 121.241 5.21333 121.241 5.352ZM129.948 7.896V16H129.1C128.898 16 128.77 15.9013 128.716 15.704L128.604 14.832C128.252 15.2213 127.858 15.536 127.42 15.776C126.983 16.0107 126.482 16.128 125.916 16.128C125.474 16.128 125.082 16.056 124.74 15.912C124.404 15.7627 124.122 15.5547 123.892 15.288C123.663 15.0213 123.49 14.6987 123.372 14.32C123.26 13.9413 123.204 13.5227 123.204 13.064V7.896H124.628V13.064C124.628 13.6773 124.767 14.152 125.044 14.488C125.327 14.824 125.756 14.992 126.332 14.992C126.754 14.992 127.146 14.8933 127.508 14.696C127.876 14.4933 128.215 14.216 128.524 13.864V7.896H129.948ZM137.486 9.824C137.219 9.46667 136.931 9.21867 136.622 9.08C136.313 8.936 135.966 8.864 135.582 8.864C134.83 8.864 134.251 9.13333 133.846 9.672C133.441 10.2107 133.238 10.9787 133.238 11.976C133.238 12.504 133.283 12.9573 133.374 13.336C133.465 13.7093 133.598 14.0187 133.774 14.264C133.95 14.504 134.166 14.68 134.422 14.792C134.678 14.904 134.969 14.96 135.294 14.96C135.763 14.96 136.171 14.8533 136.518 14.64C136.87 14.4267 137.193 14.1253 137.486 13.736V9.824ZM138.91 4.216V16H138.062C137.859 16 137.731 15.9013 137.678 15.704L137.55 14.72C137.203 15.136 136.809 15.472 136.366 15.728C135.923 15.984 135.411 16.112 134.83 16.112C134.366 16.112 133.945 16.024 133.566 15.848C133.187 15.6667 132.865 15.4027 132.598 15.056C132.331 14.7093 132.126 14.2773 131.982 13.76C131.838 13.2427 131.766 12.648 131.766 11.976C131.766 11.3787 131.846 10.824 132.006 10.312C132.166 9.79467 132.395 9.34667 132.694 8.968C132.993 8.58933 133.358 8.29333 133.79 8.08C134.227 7.86133 134.718 7.752 135.262 7.752C135.758 7.752 136.182 7.83733 136.534 8.008C136.891 8.17333 137.209 8.40533 137.486 8.704V4.216H138.91ZM145.551 12.352C144.895 12.3733 144.335 12.4267 143.871 12.512C143.413 12.592 143.037 12.6987 142.743 12.832C142.455 12.9653 142.245 13.1227 142.111 13.304C141.983 13.4853 141.919 13.688 141.919 13.912C141.919 14.1253 141.954 14.3093 142.023 14.464C142.093 14.6187 142.186 14.7467 142.303 14.848C142.426 14.944 142.567 15.016 142.727 15.064C142.893 15.1067 143.069 15.128 143.255 15.128C143.506 15.128 143.735 15.104 143.943 15.056C144.151 15.0027 144.346 14.928 144.527 14.832C144.714 14.736 144.89 14.6213 145.055 14.488C145.226 14.3547 145.391 14.2027 145.551 14.032V12.352ZM140.951 9.04C141.399 8.608 141.882 8.28533 142.399 8.072C142.917 7.85867 143.49 7.752 144.119 7.752C144.573 7.752 144.975 7.82667 145.327 7.976C145.679 8.12533 145.975 8.33333 146.215 8.6C146.455 8.86667 146.637 9.18933 146.759 9.568C146.882 9.94667 146.943 10.3627 146.943 10.816V16H146.311C146.173 16 146.066 15.9787 145.991 15.936C145.917 15.888 145.858 15.7973 145.815 15.664L145.655 14.896C145.442 15.0933 145.234 15.2693 145.031 15.424C144.829 15.5733 144.615 15.7013 144.391 15.808C144.167 15.9093 143.927 15.9867 143.671 16.04C143.421 16.0987 143.141 16.128 142.831 16.128C142.517 16.128 142.221 16.0853 141.943 16C141.666 15.9093 141.423 15.776 141.215 15.6C141.013 15.424 140.85 15.2027 140.727 14.936C140.61 14.664 140.551 14.344 140.551 13.976C140.551 13.656 140.639 13.3493 140.815 13.056C140.991 12.7573 141.277 12.4933 141.671 12.264C142.066 12.0347 142.581 11.848 143.215 11.704C143.85 11.5547 144.629 11.4693 145.551 11.448V10.816C145.551 10.1867 145.415 9.712 145.143 9.392C144.871 9.06667 144.474 8.904 143.951 8.904C143.599 8.904 143.303 8.94933 143.063 9.04C142.829 9.12533 142.623 9.224 142.447 9.336C142.277 9.44267 142.127 9.54133 141.999 9.632C141.877 9.71733 141.754 9.76 141.631 9.76C141.535 9.76 141.453 9.736 141.383 9.688C141.314 9.63467 141.255 9.57067 141.207 9.496L140.951 9.04ZM148.257 5.56C148.423 5.40533 148.604 5.25867 148.801 5.12C149.004 4.98133 149.223 4.85867 149.457 4.752C149.697 4.64533 149.953 4.56267 150.225 4.504C150.503 4.44 150.801 4.408 151.121 4.408C151.543 4.408 151.932 4.46933 152.289 4.592C152.652 4.71467 152.964 4.888 153.225 5.112C153.487 5.336 153.692 5.608 153.841 5.928C153.991 6.248 154.065 6.608 154.065 7.008C154.065 7.41333 154.004 7.76267 153.881 8.056C153.764 8.34933 153.612 8.608 153.425 8.832C153.244 9.05067 153.044 9.24267 152.825 9.408C152.612 9.568 152.409 9.72 152.217 9.864C152.025 10.008 151.86 10.152 151.721 10.296C151.588 10.44 151.511 10.6 151.489 10.776L151.345 12H150.369L150.273 10.672C150.252 10.432 150.297 10.224 150.409 10.048C150.521 9.86667 150.668 9.69867 150.849 9.544C151.031 9.384 151.231 9.22933 151.449 9.08C151.668 8.92533 151.871 8.75467 152.057 8.568C152.249 8.38133 152.409 8.17067 152.537 7.936C152.665 7.696 152.729 7.41067 152.729 7.08C152.729 6.85067 152.684 6.64267 152.593 6.456C152.503 6.26933 152.38 6.112 152.225 5.984C152.071 5.85067 151.887 5.74933 151.673 5.68C151.465 5.61067 151.241 5.576 151.001 5.576C150.676 5.576 150.396 5.616 150.161 5.696C149.932 5.776 149.737 5.864 149.577 5.96C149.417 6.056 149.287 6.144 149.185 6.224C149.089 6.304 149.009 6.344 148.945 6.344C148.812 6.344 148.708 6.28267 148.633 6.16L148.257 5.56ZM149.817 15.12C149.817 14.9813 149.841 14.8507 149.889 14.728C149.943 14.6053 150.012 14.4987 150.097 14.408C150.188 14.3173 150.295 14.2453 150.417 14.192C150.54 14.1387 150.671 14.112 150.809 14.112C150.948 14.112 151.079 14.1387 151.201 14.192C151.324 14.2453 151.431 14.3173 151.521 14.408C151.612 14.4987 151.684 14.6053 151.737 14.728C151.791 14.8507 151.817 14.9813 151.817 15.12C151.817 15.264 151.791 15.3973 151.737 15.52C151.684 15.6373 151.612 15.7413 151.521 15.832C151.431 15.9227 151.324 15.992 151.201 16.04C151.079 16.0933 150.948 16.12 150.809 16.12C150.671 16.12 150.54 16.0933 150.417 16.04C150.295 15.992 150.188 15.9227 150.097 15.832C150.012 15.7413 149.943 15.6373 149.889 15.52C149.841 15.3973 149.817 15.264 149.817 15.12Z" fill="#FCFCFC"/>
<path fill-rule="evenodd" clip-rule="evenodd" d="M1 9.182C1 11.865 2.42 14.227 4.599 15.716C4.598 16.571 4.6 17.723 4.6 18.932L8.131 17.185C8.735 17.301 9.359 17.364 10 17.364C14.952 17.364 19 13.721 19 9.182C19 4.643 14.952 1 10 1C5.048 1 1 4.643 1 9.182Z" stroke="#FCFCFC" stroke-width="1.5" stroke-linecap="round" stroke-linejoin="round"/>
<path d="M9.89899 10.219V10.012C9.89899 9.33398 10.318 8.96698 10.738 8.68498C11.148 8.40898 11.559 8.04898 11.559 7.38498C11.559 6.46798 10.816 5.72598 9.89999 5.72598C8.98399 5.72598 8.23999 6.46698 8.23999 7.38398" stroke="#FCFCFC" stroke-width="1.5" stroke-linecap="round" stroke-linejoin="round"/>
<path d="M9.89793 12.558C9.81493 12.558 9.74793 12.625 9.74893 12.708C9.74893 12.791 9.81593 12.858 9.89893 12.858C9.98193 12.858 10.0489 12.791 10.0489 12.708C10.0489 12.625 9.98293 12.558 9.89793 12.558" stroke="#FCFCFC" stroke-width="1.5" stroke-linecap="round" stroke-linejoin="round"/>
</svg>
